/* XPM */
static char *_480198143866[] = {
/* columns rows colors chars-per-pixel */
"128 128 54 1 ",
"  c #4B575C",
". c #4E595E",
"X c #545D62",
"o c #5D5E64",
"O c #5D6164",
"+ c #5E646A",
"@ c #5E686C",
"# c #626466",
"$ c #636669",
"% c #666A6C",
"& c #696C6E",
"* c #6A706E",
"= c #666D71",
"- c #696E71",
"; c #716F72",
": c #657174",
"> c #6D7475",
", c #6F7877",
"< c #6E7679",
"1 c #6F787A",
"2 c #717676",
"3 c #797675",
"4 c #727877",
"5 c #787B76",
"6 c #717779",
"7 c #737B7C",
"8 c #797E7D",
"9 c #837D7B",
"0 c #76807F",
"q c #7A807E",
"w c #82847D",
"e c #767E81",
"r c #787F81",
"t c #778182",
"y c #798283",
"u c #7D8887",
"i c #7C8688",
"p c #7E8989",
"a c #838483",
"s c #8B8584",
"d c #828988",
"f c #8E8B8A",
"g c #908587",
"h c #948B86",
"j c #938E8B",
"k c #9B8D8B",
"l c #9F9592",
"z c #A69590",
"x c #A49A93",
"c c #A89B96",
"v c #A49F9E",
"b c #AC9E99",
"n c #B2A39D",
"m c #B1A9A6",
/* pixels */
"7e7e7yr61777ttyityt77tee<>6<<66<><6<-6<-2-2>>:>>-&*>22>2>,44>>24>>2,>464>11>>1>>>:>>->>>:<>>:>1<<7117-7<671,71117771tet771<ee1ee",
"eett7tye777tee7e71116e6><>->><6>>6-><6-27->6>>22>>>>>22247464>,7>2>8>,70741171<>>4>>66666,>>166<><11<6<16>177770t70y71tet7te1eye",
"e17ye7t777777<><77>17e><<67276772>7662672>6768,82>7762776778,168>46667777e1e1<e145>76726,11>>>66<<67<<661,6>1771tt17eeee7e1e7<77",
"777t7<e676767<1e<<<77>-<6<>274667626>277>>7346*8384222>7,76>747647,41<71t7777e77077777767068747>66t4>7<7647167,11101t1e17111e<e6",
"7<e6777778,>771711>166<<756474>>>176>506>>,776,2444662667t4>7>8867488,0t1>00177<8,767700t67677>64487274706466,6717t7ee17<>1t7<<<",
"e07te77>7tq777t0e11<17172:,17877771776q,266784467>>47277748,7470646,,87tt010618700>7,77767t7778777,867867756>,46>1171<<1<<177><e",
"77etyyy80ytyyttqt11t717128>1q7888,861787677774>78>677486,67784>47571170t1ytt770070,0y8147160884q,>666774,67777411<11111:71t1e1e7",
"78w88e8888070yt6tt17717155>864>2,742,>767>77>7674>662,86477165077660777t11711,070777786,467766474807654q7446768:1>1,<:<,et711<77",
"tyw8yay7qqy547tet1077006r7770706006q787147y446>8847478407077057777647777t1yi0ti17t87yy70t08847077,87668866764764,1,1<1t11t0,t17t",
"7ye778q7tqqtq0tye,17167>77771770777476>74777>84077,,6607706771171776777<1t1t,,1181707778>,7461>7711614,>1114667,1711110t11011t70",
"8tut8tyytdd7ttettt0t7100t7>7777777t07q5q77,6774,77561177t7t0071706711776101>,,177<,714>6747,41>6667,>7777787>46716111:0:71t11007",
"0r8yqq08q7yyt7tt,ttt17008810t81466667660>,7446407674t77t011171,0707776611,17777706777277777767874>>1,7774671477>67,01tt1t1117877",
"w8qy58rqq070070e,10111y7t77700711777677787077888866677771e1t0t0y70087tt87000777078607787777164>6611,1747717q8877877t001t117617q8",
"t78yyt88tq07tyt1e10i0tt70t07tq00t00077t7848076,771714670,107i1771777te7q0117057,07677<,>,,111>6>6>1,660770076,8171,0ytt00110768t",
"77887y8858tq5ut:1t11,>,68>6t76777>0441>77t7,,76>,1676417<1t7,,,117>1716>76,7>,,:1777>,1411667,>1,>>,,6,4,:67777,0,,t01t1t1<17278",
"5758585588866777110t7770077e1,,,717,74767671,680707t,667111111100t777,617677184661171177777764617>>1>6674141161,,71,t11t0106278t",
"yq57777540007e770100,007t>7e777,117717676,7>60706>77711>,77747t707>77767>1776666767,>7070>,0777,>,64<16>76>,,,61,7t10t11111>1688",
"885758t8q5qqe77t1101>87,6,67>71767147q77877,10667674777471677>q6,7,77,77671440078670,10,4117<77717,,,8>87>,>177,1,017111711,7428",
"8368r87747801t7et110t,7017>>&7,7>6677717717y66e776<:>1,2,717006e777,>:7,6>61786,7117y61077<6&615>67,64277>,,7,6,0,0101,71>74>488",
"466885787666<t6771:,6q617,7,>>>:,>7q4,,47,,,8727,17>,>>>,6,1>78676>1>,>>>>180,,,67,,47747<66>>>:,>774>>:*:>,*>>>,,10:>:611,7446>",
"74>26>777>677177,><777e166624,>,611>6676:16077e666,>,>>47>>1e777667>>4>>>6,1>767<>678777667>>2>>111,1,:>4>178,,::,>6877t6776>2>5",
">%%&&%-$&%$##O+=@Oo%+.$$$#:&&%%>&-:&>---#Oo=.O%$+%=&&%:*:#+o=XX$%+$-%&%:>*=*--&-$+o#% +$$#=&&&%>*&=&&&&&*&#&*:*:**>-->--&2-$>-$&",
"6776eee77744et<<711=sk<t787y0>6t7775572717>=z87778qy64t78764$kg:078qy727q7738866767%2z>7778yt66t7778q6>>>>1,:1<>,>=>6<>>2<td<766",
"eiyirreat>q8eye770e>as<y7t00t78yy7w86r676t76j7ey8y7tt7qy76y76grey7t7yy68yt6w77e66ee7rj<ytqt7y06ry75w677tt0ttyyyi1teetyyteefveiit",
"eee1>7<y>na,77<1e726-:-e7et78766r:xf:r76e662=<6e7ey78668e7a<6=>2t78t777,476b868777<62=<7ee7r6e6377gl=771e6601t718at1e77e>ye:ieee",
"e17<e77r8y787tr7>6>2e777t78r67483r66e6e2>626667rt7t766477e>26e667t8ye77747e<7727>6<2676ee78t777777727<<<17t7:ee:sr:e7t1t<eyeieee",
"et71<7ryy4q77r<2<6e7e7r26t77,>887677663<;e77ee727e66675q36776ere677766,7786777<3-267r7e6677726688677<<<776<>71<<==<<17etye<eeeee",
"e7r<>yt88ty77ee<ee2er776777778872r7re266726e77777877t5767r77r66r6777668886r777627767776667672777267771177767771177e7t7tteeeeeeee",
"r7te6y8q87r8e<<ee7e77yr7r65764776767575778777r77576866777777777778777327667277777773666767677222272267777767e777767777e7e1eeeeee",
"ryt6778rytt8e<ee6re2e6re8ree6866737r67r3283787787t7877rr7678788576676248764777778877777766687677777767577772>1<6777yee7teeeeeeee",
"ert7e7trtryee6<ere6e<eyrey77e8877778677r8r22777ryyt7rr77767775q876678866467757r877ree6rerr7e877e777777777r666<<67767111eeeeee<ee",
"rryyt78yr6erreirre6eery66877e<77r678777r57778ryyrr7etee777r87rye886667688787787errre6eer87r776ree7e777876r776677<7eeee1ee1eeeeee",
"idret77ttytytyyye7e7e7ee7r6r86er767r655r8772er7rtr7ttqrrr7r787887777767777778787rryr77787877777777e7776768767q77e77yetteeeeeeeei",
"yyet7tytyrtyryieeetert7rry877rer726r78ry876778y7r77e7777777777677787724466666677e77777777777617,67262777877,677677eyeeitiieieiyy",
"ryyiettiytt7terrte6riyyyyry7ey77767775a787777e7e7t7877876777t77377777260748<77777778r77777777774773777677,767818<ereeeeieeeeeiie",
"piretettyyydtriitertey7yer7yy7eey7yt87rr6t777r7y7rrtt787e87667675886727427637277777re77e7et7778777777622766476677<eyeiitietepeei",
"yiieeeeiyyetrtyiie777trerree7t7er876773e7e73e2e8rr7y786t77r766677y36678746465667776667626777778766766662>667<711e7eeettiiieeeiie",
"iyeeeeeeetttryieyeeer6eeee7876r7677778776777777770t777t77766767277767677846877776777t6776762677>6767276686676<11:1etetyteieeieei",
"ipieryieiiyperyiytiyry7t7rtrt7t77777778778r7e677667777677r78778776767647767687676777767662<7,67467777777767777177eeitiyeeierreii",
"eyireeery7trer7et777ereyre7ty578e7r7<72778772287673777676777777667766,777788786676762777767748>166767767<7717777e77y<ereeeeeepee",
"yptieryytetyy<er000t77yeyry7q770766764647773678667767767766177477866767768677777861816777777,6767768187770777e71eeeet1ereeeeeiii",
"iueyyirii77ee77ey7077ee7r7r777777t76770477777777<6e757777187t6776,,4177677777777766676776177,81666677710717et17ee1e7yee7eeeeeeee",
"ryeyiye77e77<<7746t67<7777777767670884q1267777787e878776,6674776676847607667877707744,676647677>7,67677771t7e7171eeetteeeeeeetee",
"ee7e7ye1<7<76<778678<6<77767876>776766067777rery7t7777>t801876t007871476786676758747077614704674847466<6771e117:e11eeet1eeeeeeee",
"rere7yt7717777<>><77777t277706077777777q7777777777777777076,,166,,47,>766777,467061467628>77,,48774747,>117,<<1,117t1ete1et1eeie",
"e<et77t7777<7<-y,,78788>82>7778<7q76667777776t7776770777786777067778887777778078767077780774777667776,7,11111:10te77eee1e1ee<:e1",
"11ee711e1e7177r5,477,41064667,70777,y7777777777878,77770077068066178777777074766661778276>164,6116767,611,1><>171767e1e<<<>eee<>",
"e<e<6ee1e777e67e770688qt6t777>4,78776876>777e777777678706718777,6067676776667,67647646>8867747677,44767717<676767177ee<e>1ee<<:e",
"e7116771,7117>7771>777777678168770178006770777077667777777167804877764717760777777777,8677770146<4>,4404,747766,,7177<>1<<<1<17e",
"1<17777ttet1qy88>707740,707q4q71,487768777,77066777877614168477,,487744747771677667777676677,76768,767,7,6447441>>1711,:1<e111<1",
"77<677,1001,7770700871,,6764471>77>6616476777>77774767078401167476,674067777677,7604,7607674446777786,66267,6664,>,,<:,1=>=<<<6e",
"uittytt777t0y00077007771077777q80777611>,1887,0081,,6,77148>,67,6,187687714677>74604,467747668167666>76>6>666>>><>>,:et17,1e7<tt",
"ttt500y00yt7t17t00e7707607417777771,716q,77070700171706876087077867<>66767877777404777677767671708700t,87772,>14<<,,710111711e1e",
"8udtttty0yt770t17t70670787,0777777777788,767077t770770766787777617>471177670577q1646666648447071>68774777762887,1117,<t17101er77",
"07qtw70008tte7tt,e0011070770076,16777,77877777077774187,028177816710847,17646,78,60,68174,78777,y77,817t808876,,64111ee101717777",
"w7yt00qqt07et7t7111070q707770q17707676q761,7017006787774701741618177776t770767487787761,>>1708770076,16646>76<676770071t117187tq",
"qr8y8t88w858yyt>t0ti1t070q07tt0070770078>077677,777080771871147776677777607711777177,17>q4777077870,76076777840811,0tyy1t,1t060t",
"77q45qw7w8q87yt:1t1,,>110:801767717,7,,014t7141777,767,,77717,1717677766767,6747677777774,76677777777171147787,70,1t01t1t11114e5",
"75587848678>17771,te700ty177166771t170ty7607,11707707176717777770077e1<<1760777007777141770777167617077700671,71171101001e0165tq",
"r8757774700q7t771,0,,0877>707776,77>0t171>07770171>77776,1771,000t<607771177,70676177770,76177777,,7,>0877,6777,,01t1t,,,1<:777q",
"8586q0q7q7qq870t107017161167>77t1000,771616>46767,47>67t01770>70>6,6767701077,0,1166>,77,17>76670770017067617>4,1110117011146237",
"3746>4157748701te,770,e017>>>7681,60777176>>6>671722:76707110t,7017,2:76t1,707107761>,1>07762:4670,17041768>,*1,01007,:7>>062778",
"76667>88e4666076111,7q467,747477111,00,7166264840,676766671,>708771644116767>8027665>,6817144>6<1666,4y477461<>>>,,,>>,711442267",
"6>->*>>>>%2>>>>1:&>6,=1>>>:*::-:$%>>@%>&*:*>>::2:>>:*::2,>>>77,61>,,:>>>1&&:8::4-><*:>><6>,12:>>,>&:11=,>:>2&:>:>:<,1717>72&>>&5",
">--:<262-<>&><>%<;$$$9-2>227e7>>e2>Xss-7778r-33:22>676>---=$$$-%-:&:2>2-&<=-O;9=6>227>&&%>-->2>>%><%$o9-><-277>-*&%%>=:%&->=-<$=",
"eiieriryy16yrpt7eer6rberyyytyr7e6eeefseirt8t1jj1yytryyee7e6r7=bgey8ytiye77ey<sx1yttyt7az1ytrrryy7e6yr<cfeytttyt0tt77ytt0eytmiiiy",
"eeeee<er0hj1ee6<ee6e2:-e777777<6e6<6=:2e77t771-<e7ee7866<e6ee6e-7e8e77r2<e76e<:=e7e77861>t7777ee>7e<e6:=1e7et75t1<ee7ett7rytyyre",
"eee<>e756fj>87ee<<<66>67e8rt7er7<626676e88re7677e88y77ee6<e626-26e87y76e711<2<66e87r866<277ree267<><><<6<e77y7768k1e7e176<i1eeee",
"<ee6767yy6>y6te><<66e7e77777666666e6r7826e67677767t676e67<<<77777777r77722276e776767777776777726><;<><66667e671>76>><7eeeeeeeeee",
"eeee:7tty8y777e<6r2er77667e76e77e67re7767ee6877766e766767777787e766e77666e66672766777776766772<6<666>e<66<<767<<>e<<eeeteeeeetee",
"e6ee18yq88yq7ee6r77e7rr7r877e77r66e37r87r77787877r78e77787777r7777te7878e7e77ee7787777877867773626666<6e776<7e6<677777teeeieeeie",
"eere7qq7qy70t<6ee7r6rrr77r776<3277<e77r37877777786676637e867778r77757787r738776375776366776777662ee3ere<67ee<ee77<<ee77teeeeeeee",
"eri<77ee8yyt87<eeee<<<erryt7e7877r6re23r7t767r86667666877777888e7r6e77662e277r7r7<ee676762677q7867r777r7eeeeee67e<>eeeeeeee1ee11",
"errrrertt77yyreerr6yeeye7886r77876667778rey8eryt77t76e8y7e88y77777e7e7ee3677787rr6erte6e777tqy7terrreere7eee7e7eee<1ee:eeeeee1et",
"ririt76ttytyreyyre76e7ee6777t<67r6er7786e7reertttt76qr7tee777r7778768876ee68778rretqqyyy<7077te6<>r8eey7777ee<e1<<eeeeeeeeeerree",
"dprrt8ytty7ytiiyeery7y7eeyr7t8eyr22r778reeeeyyrytt7e7767e77777er7e7err7<6r77887eerutyte7eee<477>2e77ryyeyteee<ee7e<eeeeieieeiyii",
"ryri8ttyityeeeyereeeiyrreyy77r7776<887886errere7766t7><<>6errrerr6er66r66877r7ereeer6<767e<<2>>>6e6eeeteeyeeeyee7777eeettteeeeie",
"iiytye0ytttyyeiiye<rrtryreree8r7r6er86r7e777<7e667777<<677e7er7r7rr78e76r87787767667766776<67766e6e67e7eer7eeeryeeeteiieieeeyiei",
"iiiy1etytueyyeyyire7etr7777eyeyrr787e777777777777777667e667re7767rerr7r7e7777777r6e7777r766777667rre6tyyeyiy77yyreeeeeeiiiieeiei",
"rrttt77tteeeeyiryee6err7e7eye7te6e777787e7eeyrr7erre7e77767r7ee7yr77r777777ee77777rre77er6e7676<67eeryyeyyitreety<eeeeitteeeieie",
"ippettyyriyuieiiyyyttte76eer6686776eereyye7rrttyt7tet77787re77e8ee7777e66ree7ee67e777r676776777677e7yytyrrti77777e7yttiteyyeieei",
"ieprty7yirtyert7tttty7eyeet7rrr7rr7rrtitteeeeieyyq7tt8trr7e7er7r7677e6777777777776r77r766768766676e0ttt6ereyreee777y7eieeeeteiie",
"eiitee77e6tyte7e7eeiettrryrtryyye7yrtrrtie117eyreter7r7e7e777777777777777e7666e62676466662>76>>>6766<677<ett1e776e7ree7teeeeeyiy",
"ipyyyyytyetyyr7tyteryy77yyyyytt77ere<eyryrter67e78ttt7e77et7rer77e87ee<e776766662666>1676>>67,>6>76<1716<<6<<<<<7<7etee7eeyyieiy",
"ryyriyeety<ereeryetiiteeeei7yyt7t77e7<6ty7e7eee7etr7eee777rreeeer77e777766e2666611711676>>>,>>46>6671661<76<7<767eettttetyeyeet<",
"ee7eeyt7<e7ereyityrrtie76eeyeet7e7771<1e7677<76e777e77e87r777676777767e62r77767777771<6666<64>866>>,76<<7<><<<1<<e71eet1e1<1eeet",
"eeet7ete777eeeete17teytter777e8tre77e<777e77777tert7t87777e776rer777777777e7777e1e7767176674266777766<1<666<71<7777t77yt77eee1tt",
"ee1t7ee777e11e>17e67tye77reee7rreey711<77ee7e7te77868767787e877rrer7rrr77777e67e77777776>11766676176<>6<<<6<<7e11te77ee71eee7<ee",
"e16tq777<7676<6e111771><66<17777tett7778re777e7r7777r67rtryye7errtry7e7tt77r7ee777716776<667661676667671<71671777777e1e1ee1<e<17",
"1<ee7767776>771717<6777<757<77e67ty7eett7eeier7e8tr7errtrtyitee7yyryytet8tt78777e7776776<776666666776666676677771e77ee17<=1ee1<<",
"e7<<<77:<<r<17e17111<7677><67711777176eeere6iyrytyyt7rreteetye6e7eye77ee7er7e77ee7e67e77e777r77776777677776776e777t771<<<>ee1><e",
"77777786e<677eeet1777171>7<<777>7766777eyeeeyyyri7r7eee7<erteetee6e78teet7r77eeere7e7ereee7e77t707777ee7767777717776<77<<<<1<7e1",
"11766867q767767et707117778267111<>76777eyte7errriy77e71e16ee71767e77ereett7777er7e77767e7707e77e7e87e77777777e<e77777<11<:><1<>e",
"tue78qtq77yqe8et000777078767t77177177671et7777ey770ee17<<<e1><67<>6777eerrteee67e7trtre77rytyyt777y7tetee7eree7771766767<<>11<7e",
"ty08qty7yqyttye70t70617>87777e7e77>e7<q67ee7ee777reeee776<6777<77777e777te7777776777677777teete67e7e777777777777677776171117171r",
"00ut7tyytud7q7tttt7707q77e66710077777786777767e6707ee7e7e<<ee77<>66767777666<<67767672>6r76eettreee777qyre77e6777eee771711711ee7",
"7tyyaq7qq8tqt0tt1ttt71t060,7y0777660177776687747777eee77e777eee7e777e77tee7777<<17116866<e<67e776677777r0467877t77777777t1t17707",
"wq8y878q007t007t,1711,t707787071617748676777678776077077171777676777777077ee76677677>>1777<776<676>>676777676,6766770767t111177q",
"q8ryyy8qq0040tt710ttt0u70t07ty00t0q066070770174707777t7716<176<167,>7776eetet7776761q067776677777e7<7777,77647677667771t711t777t",
"78784qq548qqqyt<1t1t11,1746q77777>7781,77877,774,777e11771<1<76<6786767677t7177071188777777777777667776767776676666667010111727q",
"865888588877,701,0011047t76e6<,6717,7,167177>7676t7767717471616776161666<767,7176,17678>6676e777177767<6177777777677771tt1e76488",
"t5885677>8877e17e,10,000t17e7761<67767767,6>,>6661777771<,777776667>6>7761611771776746>1<66616777111<777776777t76777tt701116675r",
"5q8658r8qtqq777t,107:00>4,,7177767,41767468>46748467,717<7,41076768>>6677771774,776760>>46774>77770>76617676677701711,e1116>6768",
"57676777468qe77tt11tt,1077,1&617>177004,70,>17>,66<1&7,71617074470>>472:417661,7t76776117226866-,1761167t8177771107001117>672287",
"76467-6777661t8771166q777,66>>>>>>604>>47>>,>>>,8>16>>>*>>6q6>>48>>,2>,>>>>>>768>2277>4>>>48,>6>>>>>>688>>,66>>11,77771<,1662486",
"86>27278724767677,668776616246,>7417777,>4,,,242167624>,7176680>>41,,46>7>>1,17807422414>4,466727,>,16770,4446t777t6e1e1116<6>>5",
"3;2-&#&2;&&$$#$-%OO;-X%%%#%%$%$%$$$#$$%%&%&O$$%&%#%&%%$%$$#$$%%&&%&O#%&%&$&%*%$%&*&:%&+$%%:&&&&&&%*%&%%%&**:%%>-4>6>>&>>:22%&3>>",
">-627766272><7>-7>>o3h=6124q5>>04277q445*8q424>62>4q72>q44745665*7q6>>37>&42*>22>*2&>82*3&&>&:44*&4>&>222*2&26->>&%%>>==:>23>2:-",
"eiyyieri8>7yyue777y1al1yytyqy77ytt557q7675782:757qtqy87yy0557r7748682>0ye6yty847y773q80767q7ryyy06yytq2887875etit7eeeeyteipmeiit",
"7tee:e6r<xf>q7<<e7<7>:-e77878876t<jx:7q84262>226467087640,jx=8q742622367e78078c-8t57224>62467757076t78c-7857667727t7eeee1ye:rter",
"e7e<1ree6sy877ye<2<6<677t70t176567r78>66764>42>6777t1764,7t77676742>44y4763678a26774764>4><377y776467ya7777476e>ag>7ee1e<eieeeee",
"7y71<<erd>7t6t7><<e6eqt66e061,7q86777632;2->42246886117q8677777626227768677572>22>2272644>277776675q8667667;266><<>,11eeeeeeere<",
"eet6>tt878t7<ee<er27r6e677e36e782eere66678<>77227576287r>e87e77666586e63667&3->77223676662245772775768te766,111:,11<eeeyteeeettt",
"e7tr6tyqq7te6ee1e6r7err7re77e67e3762e73737724736268462776777776787r66rree26276-77>22577677727777777777778666eee11ee777e777tee7it",
"ret778q8yyeee<ee77r6e67e3re77622776726r728374666263427667737r6877777772e77777r23322227666273<64623777216686716<e6<1ete1eyt7eeerr",
"rtt677trqqreee1eee<7>eryer87787e7778637r582>88>6772>72323377r776766772e32r3<55627763634447>,16><6666661>6>67<te,71<ee17eeeee7e1e",
"erryy7ryt77ttertyy6tery768e68677e777777q78q6684236662237<2eety77587777r725y5y7>752<776>77342<1:<><7<,1<>116011:e7e77ee<reeiee<tr",
"yitrt787ty8treyyeee<eere7768r<e7e6er7857q76277486>48226><ee6777872777777778878637727224>224<<<<<><e617eet77711ee77etttteeeeerrei",
"dytt7ttqttryeiie7eyyer7eeyr87eer72<r755y87668647467>22;777e7787y6e7r2er67378072687752784242>77><1<77t7171ttteeeee7etettyeyeeyyei",
"ryiy8ttuytyeyryere7eiryryytr7y77766877a5e86780485>887727727eyre7rere2>ee88y87668728747>>6>46<7<>7177717777e11e111et7eeyyeeeeeyir",
"dieyyeeeyytyyyyiteeyyyeyyr7eye7ey7rr87ya7e866776q688<757778rryt7r7e7e67768a782788773677872<eee111e<7<t6yeet1teett1ettitiiteeitei",
"yiiteeeiiy7yttiyie7e7ytyyt7eeeyyy777e7787e767>766764>687r7rrr77yrrer6err8ry87t1677287756271<<11<1<7et7te7ettytetteeeetetiiiteiii",
"tieeeeeee7teyryeye77y<te778i777r7r66e8776787677368666822857r77tr7reer76e87877e672676766267:ee1<<eeee<70777eee71e:1eeeeteeteeeiet",
"ppireiyeiiypyriiitiyieytryduyqte67erty8rqyt78q8877q88784778777ye77r7e6<e777677772777437776e11ee111e1e1tte7tte7t7eeeitiiteiieitti",
"iydeee<yietyere7y77767y78tt0777t8rt8677e777727773722>744>-267ree76726e<ee77e8t77r7777e<e61e1<<1111ert7e7t7771tt1ee1y<eteeeeeeiie",
"tiyteeeet7yyt77yet71t66ety7qy8qt76qt7r8775667e68>664274262>>->26<-->=>-=-<><6<62<<76>=>1<>1>11>:1<:<16777e761e1e1eeteeeteeeeeiit",
"iuttyiyiittttr6yuyt7tt7y7yyetrrtee777er677>64>62<>&4>34><22<2-2>=%==-=:-=-->=:=><7>:=<<<e1<11<<17<<1e71y6yet77e1teeeteeeeeyiieee",
"eityyteett1eyettttyy7<tq6qt76<676677776766>6>46>>>2>>>>>2<-22-6:-===:=-:$-=-=><<<::1><<<:1111<11177e717etetttet1ty1eeeeeeeeeeiee"
};
